<?xml version="1.0" encoding="UTF-8"?>
<svg width="13px" height="14px" viewBox="0 0 13 14" version="1.1" xmlns="http://www.w3.org/2000/svg" xmlns:xlink="http://www.w3.org/1999/xlink">
    <!-- Generator: Sketch 43.2 (39069) - http://www.bohemiancoding.com/sketch -->
    <title>search</title>
    <desc>Created with Sketch.</desc>
    <defs></defs>
    <g id="Page-1" stroke="none" stroke-width="1" fill="none" fill-rule="evenodd" opacity="0.361526268">
        <g id="search" fill-rule="nonzero" fill="#000000">
            <path d="M8.9540815,5.90870286 C8.9540815,4.92142871 8.61338075,4.07690902 7.93197925,3.3751438 C7.25057775,2.67337857 6.43056421,2.32249596 5.47193864,2.32249596 C4.51331307,2.32249596 3.69329954,2.67337857 3.01189804,3.3751438 C2.33049654,4.07690902 1.98979579,4.92142871 1.98979579,5.90870286 C1.98979579,6.89597701 2.33049654,7.7404967 3.01189804,8.44226192 C3.69329954,9.14402714 4.51331307,9.49490976 5.47193864,9.49490976 C6.43056421,9.49490976 7.25057775,9.14402714 7.93197925,8.44226192 C8.61338075,7.7404967 8.9540815,6.89597701 8.9540815,5.90870286 Z M12.9336735,12.5688012 C12.9336735,12.8463052 12.8352199,13.0864534 12.6383131,13.2892448 C12.4414062,13.4920362 12.2082271,13.5934317 11.9387756,13.5934317 C11.6589604,13.5934317 11.4257812,13.4920362 11.2392377,13.2892448 L8.57322236,10.5515598 C7.64568721,11.2133006 6.61192582,11.5441707 5.47193864,11.5441707 C4.730947,11.5441707 4.02234114,11.3960795 3.34612154,11.0998975 C2.66990193,10.8037151 2.08695407,10.4034686 1.5972775,9.89915847 C1.10760139,9.39484789 0.718969179,8.7944786 0.431381321,8.09805013 C0.143793929,7.40162166 0,6.67183908 0,5.90870286 C0,5.14556664 0.143793929,4.41578406 0.431381321,3.71935559 C0.718969179,3.02292712 1.10760139,2.42255735 1.5972775,1.91824725 C2.08695407,1.41393666 2.66990193,1.01369063 3.34612154,0.717508193 C4.02234114,0.421325756 4.730947,0.273235016 5.47193864,0.273235016 C6.21293029,0.273235016 6.92153614,0.421325756 7.59775575,0.717508193 C8.27397582,1.01369063 8.85692368,1.41393666 9.34659979,1.91824725 C9.83627636,2.42255735 10.2249081,3.02292712 10.512496,3.71935559 C10.8000838,4.41578406 10.9438777,5.14556664 10.9438777,5.90870286 C10.9438777,7.08275862 10.6226083,8.14741355 9.98007029,9.10266814 L12.6460857,11.848358 C12.8378111,12.0458127 12.9336735,12.2859604 12.9336735,12.5688012 Z" id="Shape"></path>
        </g>
    </g>
</svg>